<svg xmlns="http://www.w3.org/2000/svg" width="144" height="32" viewBox="0 0 144 32" fill="none">
  <defs>
    <filter id="glow" x="-30%" y="-30%" width="160%" height="160%">
      <feDropShadow dx="0" dy="0.8" stdDeviation="0.8" flood-color="#17231b" flood-opacity="0.22"/>
    </filter>
  </defs>

  <g transform="translate(0 0)" filter="url(#glow)">
    <path d="M12.1 7.2C14.9 7.2 16.8 9.2 16.8 12.3C16.8 14.2 17.6 16.1 17.6 18.3C17.6 21.8 15 24.6 11.8 24.8C8.4 24.8 5.9 22 5.9 18C5.9 15.9 6.7 14.2 7 12.1C7.4 9.4 9.4 7.2 12.1 7.2Z" fill="#d7ea73" stroke="#1b2a16" stroke-width="1.1" stroke-linejoin="round"/>
    <path d="M10.2 5.2H12.3L12 7.7H10.1Z" fill="#6a4327" stroke="#1b2a16" stroke-width="0.8"/>
    <path d="M12.8 5.4C15.3 4.8 17 5.7 17.3 7.3C15.3 8.1 13.8 7.7 12.8 5.4Z" fill="#58a34b" stroke="#1b2a16" stroke-width="0.8" stroke-linejoin="round"/>
    <path d="M9.2 10.3C7.6 12.4 7.5 16.8 8.1 19.1" stroke="#f2f7ad" stroke-width="1.4" stroke-linecap="round"/>
  </g>

  <g transform="translate(24 0)" filter="url(#glow)">
    <path d="M12.3 7.1C16.4 7.1 19.2 10.1 19.2 14.2C19.2 19.2 15.9 24.6 12 24.6C8.1 24.6 4.8 19.2 4.8 14.2C4.8 10.1 8 7.1 12.3 7.1Z" fill="#f35b73" stroke="#2a1618" stroke-width="1.1" stroke-linejoin="round"/>
    <path d="M7.2 8.3C9.5 5.2 14.7 5.2 17 8.3" stroke="#4f8f3f" stroke-width="1.5" stroke-linecap="round"/>
    <circle cx="9.2" cy="13.2" r="0.7" fill="#ffd9df"/>
    <circle cx="13.6" cy="11.4" r="0.7" fill="#ffd9df"/>
    <circle cx="15" cy="16.4" r="0.7" fill="#ffd9df"/>
  </g>

  <g transform="translate(48 0)" filter="url(#glow)">
    <circle cx="12" cy="16" r="7.2" fill="#ffb14f" stroke="#2b1f14" stroke-width="1.1"/>
    <path d="M12 8.8L13.2 16L12 23.2L10.8 16Z" fill="#ffdca5" opacity="0.92"/>
    <path d="M4.8 16L12 14.8L19.2 16L12 17.2Z" fill="#ffdca5" opacity="0.92"/>
    <circle cx="9.4" cy="12.1" r="1.1" fill="#fff2d0" opacity="0.92"/>
  </g>

  <g transform="translate(72 0)" filter="url(#glow)">
    <path d="M6.4 19.6C6.7 11.7 12.7 7.6 19.5 8.2C17.7 11.5 15.9 14.9 14.1 18.2C12.8 20.6 11.1 22.1 8.2 22.6C7.1 21.9 6.6 20.9 6.4 19.6Z" fill="#f0df62" stroke="#2b2816" stroke-width="1.1" stroke-linejoin="round"/>
    <path d="M9.6 18.8C10.1 14.6 12.9 11.6 16.9 10.6" stroke="#fff6bb" stroke-width="1.2" stroke-linecap="round"/>
    <circle cx="14.8" cy="18.1" r="0.8" fill="#8b6d1d"/>
  </g>

  <g transform="translate(96 0)" filter="url(#glow)">
    <path d="M8.2 8.8H15.9L19.2 12.5V19.4L15.5 23.4H8.7L5.1 19.2V12.5L8.2 8.8Z" fill="#cf9e45" stroke="#2b2014" stroke-width="1.1" stroke-linejoin="round"/>
    <path d="M8.5 8.9L12 5.7L15.6 8.9" stroke="#5a8d42" stroke-width="1.5" stroke-linecap="round" stroke-linejoin="round"/>
    <path d="M9.4 12.1H14.7" stroke="#fbe9b3" stroke-width="1.1" stroke-linecap="round"/>
    <path d="M9.2 16H15.1" stroke="#fbe9b3" stroke-width="1.1" stroke-linecap="round"/>
    <path d="M12 12V19.8" stroke="#8f6724" stroke-width="1" stroke-linecap="round"/>
  </g>

  <g transform="translate(120 0)" filter="url(#glow)">
    <path d="M12 7.4C15 7.4 17.3 9.4 17.3 12.2C19.2 12.3 20.6 13.9 20.6 16.3C20.6 20.9 17 24.8 12 24.8C7 24.8 3.4 20.9 3.4 16.3C3.4 13.9 4.8 12.3 6.7 12.2C6.7 9.4 9 7.4 12 7.4Z" fill="#ef7f6b" stroke="#2b1715" stroke-width="1.1" stroke-linejoin="round"/>
    <path d="M9.8 7.5C10.8 5.4 13.6 5 15.3 6.2" stroke="#6b2a23" stroke-width="1" stroke-linecap="round"/>
    <path d="M9.4 6.9C8.1 4.9 10.4 3.8 12.8 4.1" stroke="#58a34b" stroke-width="1.4" stroke-linecap="round"/>
    <path d="M7 12.4C6.1 15.5 6.8 20.1 9.2 23" stroke="#ffd6cf" stroke-width="1.3" stroke-linecap="round" opacity="0.82"/>
    <circle cx="14.4" cy="12.6" r="0.9" fill="#ffe1db"/>
  </g>
</svg>
